# xmcd
#
# Track frame offsets:
#	150
#	7449
#	96401
#	155292
#
# Disc length: 2552 seconds
#
# Revision: 1
# Processed by: cddbd v1.5.2PL0 Copyright (c) Steve Scherf et al.
# Submitted via: audiograbber 1.83.01
#
DISCID=2d09f604
DTITLE=Grateful Dead - 69-01-24 Avalon Ballroom, San Francisco CA
DYEAR=1900
DGENRE=
TTITLE0=Stage Talk
TTITLE1=Dark Star
TTITLE2=Turn On Your Lovelight
TTITLE3=Drums and Audience
EXTD=
EXTT0=
EXTT1=
EXTT2=
EXTT3=
PLAYORDER=
